<svg width="30" height="30" viewBox="0 0 30 30" fill="none" xmlns="http://www.w3.org/2000/svg">
<g clip-path="url(#clip0_5_68)">
<path fill-rule="evenodd" clip-rule="evenodd" d="M11.1697 1.01949C9.49302 1.22057 9.53772 1.13117 9.53772 4.3278V7.18911L7.92834 6.54072C4.44123 5.17728 3.90451 5.51246 1.80327 10.4527C0.864401 12.6434 0.842126 12.5987 3.1893 13.7833L5.11173 14.7446C5.11173 14.7446 0.685751 18.2541 0.752726 18.187C0.238594 18.6565 0.149186 19.4165 0.551644 19.9754C3.90466 24.8037 7.1013 26.145 9.60485 23.7978L10.2307 23.2165L10.2755 24.4238C10.2978 25.0943 10.2978 26.1673 10.2531 26.7932C10.1413 29.0733 12.5778 29.5874 19.6192 28.7826C21.7429 28.5369 21.6088 28.7156 21.4522 26.1673L21.3181 23.9096L21.9664 24.2448C24.2688 25.4296 25.1181 25.0273 27.6441 21.6966C30.2148 18.2988 30.1254 18.634 28.7395 17.4717C27.1077 16.0858 25.2077 14.6105 24.8948 14.4987C26.1241 13.1575 28.3819 10.6315 28.3819 10.6315C28.6948 10.3185 28.8512 9.89389 28.8512 9.46915C28.8512 9.04441 28.6501 8.61969 28.3372 8.32906C24.6042 4.90892 22.4805 4.12658 20.6475 5.53488L19.6192 6.31722C19.6192 6.31722 19.5522 2.42764 19.5298 2.18187C19.4404 1.17587 15.0368 0.550055 11.1697 1.01934V1.01949ZM18.2333 10.3856C19.2392 10.2291 20.424 9.58083 21.6759 8.46316C22.9946 7.27851 22.9724 7.27851 24.2466 8.32906C24.8054 8.79849 25.3641 9.2455 25.4982 9.3349C25.6547 9.44673 25.4982 9.71493 25.0734 10.095C20.9381 13.6939 19.8427 15.3034 21.4969 15.3034C21.7876 15.3034 25.6771 18.4552 25.6771 18.4552L23.084 22.2107L22.3911 21.786C17.9651 19.0812 16.7356 19.5059 17.7639 23.3955C18.6133 26.6144 18.658 27.1285 17.9427 27.1285C17.6521 27.1285 14.0533 27.419 14.0533 27.419L13.919 24.7589C13.7849 21.8754 13.9861 16.354 8.73296 20.9589C7.21298 22.3001 7.01175 22.613 6.31881 21.8754C6.11758 21.6519 4.37394 19.5282 4.37394 19.5282C4.37394 19.5282 7.01175 17.3823 7.57059 16.98C10.2307 15.1693 9.87306 14.9681 6.76597 13.3586C5.58117 12.7328 4.5529 12.1739 4.46365 12.0845C4.37409 11.9951 6.38579 8.15025 6.38579 8.15025L8.50945 9.2455C11.5049 10.8103 13.2036 11.0338 12.8685 9.08913C12.6448 7.74795 12.6448 2.83011 12.6448 2.83011L16.3332 2.78525C16.3332 2.78525 15.9084 6.80908 16.1097 8.86547C16.2438 9.75963 16.4003 10.6538 18.2333 10.3856Z" fill="#FFC0CB"/>
</g>
<defs>
<clipPath id="clip0_5_68">
<rect width="30" height="30" fill="white"/>
</clipPath>
</defs>
</svg>
