<svg width="60" height="60" viewBox="0 0 60 60" fill="none" xmlns="http://www.w3.org/2000/svg">
<path fill-rule="evenodd" clip-rule="evenodd" d="M12.8571 56.7857C18.1827 56.7857 22.5 52.4683 22.5 47.1429C22.5 41.8173 18.1827 37.5 12.8571 37.5C7.53154 37.5 3.21429 41.8173 3.21429 47.1429C3.21429 52.4683 7.53154 56.7857 12.8571 56.7857ZM47.1429 56.7857C52.4683 56.7857 56.7857 52.4683 56.7857 47.1429C56.7857 41.8173 52.4683 37.5 47.1429 37.5C41.8173 37.5 37.5 41.8173 37.5 47.1429C37.5 52.4683 41.8173 56.7857 47.1429 56.7857Z" fill="#FF7972"/>
<path fill-rule="evenodd" clip-rule="evenodd" d="M36.4539 12.2882C36.9612 11.6333 37.743 11.25 38.5714 11.25L49.2857 11.25C50.7651 11.25 51.9643 12.4492 51.9643 13.9286C51.9643 15.4079 50.7651 16.6071 49.2857 16.6071H42.029L46.5943 34.2972C46.776 34.2896 46.959 34.2857 47.1429 34.2857C54.2439 34.2857 60 40.0421 60 47.1429C60 54.2439 54.2439 60 47.1429 60C40.0421 60 34.2857 54.2439 34.2857 47.1429C34.2857 42.1035 37.1849 37.7414 41.4063 35.6333L40.5054 32.1421L24.8354 42.4613C25.4028 43.9119 25.7143 45.4911 25.7143 47.1429C25.7143 54.2439 19.9579 60 12.8571 60C5.75636 60 0 54.2439 0 47.1429C0 40.0421 5.75636 34.2857 12.8571 34.2857C16.3758 34.2857 19.5643 35.6992 21.8859 37.9893L24.7695 36.0903L16.7808 24.1071H12.8571C11.3778 24.1071 10.1786 22.9079 10.1786 21.4286C10.1786 19.9492 11.3778 18.75 12.8571 18.75H24.6429C26.1222 18.75 27.3214 19.9492 27.3214 21.4286C27.3214 22.9079 26.1222 24.1071 24.6429 24.1071H23.2192L29.2437 33.1439L39.0905 26.6595L35.9778 14.5979C35.7708 13.7958 35.9466 12.943 36.4539 12.2882ZM43.089 42.1534C41.64 43.332 40.7143 45.1294 40.7143 47.1429C40.7143 50.6931 43.5926 53.5714 47.1429 53.5714C50.6931 53.5714 53.5714 50.6931 53.5714 47.1429C53.5714 43.9791 51.2859 41.349 48.276 40.8138L49.7366 46.4734C50.106 47.9061 49.2446 49.3667 47.8123 49.7366C46.3796 50.106 44.919 49.2446 44.5491 47.8123L43.089 42.1534ZM11.384 44.9053L16.2649 41.6908C15.277 41.072 14.1088 40.7143 12.8571 40.7143C9.30673 40.7143 6.42857 43.5926 6.42857 47.1429C6.42857 50.6931 9.30673 53.5714 12.8571 53.5714C16.4076 53.5714 19.2857 50.6931 19.2857 47.1429C19.2857 46.8103 19.2605 46.4837 19.2118 46.1649L14.3303 49.3791C13.0948 50.193 11.4337 49.851 10.6201 48.6154C9.80644 47.3799 10.1484 45.7187 11.384 44.9053Z" fill="#FFC0CB"/>
</svg>
