<svg width="169" height="166" viewBox="0 0 169 166" fill="none" xmlns="http://www.w3.org/2000/svg">
<path fill-rule="evenodd" clip-rule="evenodd" d="M102.708 42.4512C106.667 46.0131 112.764 45.691 116.326 41.732C119.888 37.7728 119.566 31.6758 115.607 28.1139C111.648 24.552 105.551 24.874 101.989 28.8331C98.427 32.7921 98.7489 38.8893 102.708 42.4512ZM128.197 65.3825C132.156 68.9443 138.253 68.6223 141.815 64.6633C145.377 60.7042 145.054 54.607 141.095 51.0452C137.136 47.4833 131.039 47.8053 127.477 51.7644C123.915 55.7234 124.237 61.8206 128.197 65.3825Z" fill="#FF7972"/>
<path fill-rule="evenodd" clip-rule="evenodd" d="M150.012 25.1533C150.827 25.0057 151.664 25.2437 152.28 25.7977L160.245 32.9638C161.345 33.9533 161.434 35.6468 160.445 36.7466C159.456 37.8464 157.762 37.9359 156.662 36.9464L151.267 32.0929L142.83 48.2973C142.97 48.4132 143.109 48.5327 143.245 48.6557C148.524 53.405 148.953 61.5343 144.204 66.8131C139.455 72.0921 131.326 72.5214 126.047 67.7721C120.768 63.0228 120.338 54.8936 125.088 49.6146C128.458 45.8683 133.531 44.5645 138.079 45.8207L139.744 42.6227L121.193 39.8136C120.645 41.2715 119.82 42.6539 118.716 43.8818C113.966 49.1608 105.837 49.5899 100.558 44.8407C95.2794 40.0915 94.8499 31.9623 99.5992 26.6833C104.348 21.4045 112.478 20.9751 117.757 25.7243C120.373 28.0777 121.798 31.2611 121.992 34.5163L125.406 35.0332L127.481 20.7817L124.564 18.1574C123.465 17.168 123.375 15.4744 124.365 14.3746C125.354 13.2749 127.048 13.1854 128.147 14.1749L136.909 22.0575C138.009 23.0469 138.098 24.7405 137.109 25.8403C136.119 26.9401 134.426 27.0295 133.326 26.0401L132.268 25.0879L130.702 35.8353L142.36 37.6005L148.113 26.5519C148.495 25.8172 149.196 25.3008 150.012 25.1533ZM134.969 51.7933C133.104 51.7003 131.213 52.4174 129.867 53.9142C127.492 56.5536 127.707 60.6184 130.346 62.993C132.986 65.3675 137.051 65.1528 139.425 62.5135C141.541 60.1615 141.601 56.6776 139.721 54.2666L137.022 59.451C136.338 60.7631 134.721 61.2728 133.409 60.5898C132.097 59.9062 131.587 58.2889 132.27 56.9768L134.969 51.7933ZM109.559 32.6338L115.337 33.5086C115.017 32.3878 114.388 31.3406 113.457 30.5034C110.818 28.1288 106.753 28.3436 104.378 30.9829C102.004 33.6222 102.218 37.687 104.858 40.0616C107.497 42.4363 111.562 42.2215 113.937 39.5822C114.159 39.3349 114.359 39.0753 114.536 38.8057L108.757 37.9303C107.294 37.709 106.288 36.3438 106.509 34.8811C106.731 33.4183 108.096 32.4121 109.559 32.6338Z" fill="#FFC0CB"/>
<path d="M1 7C90.5 22 163.212 109.969 168 165" stroke="black"/>
</svg>
