<svg width="327" height="254" viewBox="0 0 327 254" fill="none" xmlns="http://www.w3.org/2000/svg">
    <g id="Bike Hill">
        <g id="Bicycle Bike" clip-path="url(#clip0_5_90)">
            <g id="icon">
                <path id="inner-wheel" fill-rule="evenodd" clip-rule="evenodd"
                      d="M204.463 80.5691C208.422 84.1311 214.519 83.8089 218.081 79.8499C221.643 75.8908 221.321 69.7938 217.361 66.2318C213.402 62.6699 207.305 62.9919 203.743 66.951C200.182 70.9101 200.503 77.0072 204.463 80.5691ZM229.951 103.5C233.91 107.062 240.007 106.74 243.569 102.781C247.131 98.8221 246.809 92.725 242.85 89.1632C238.891 85.6012 232.794 85.9232 229.232 89.8824C225.67 93.8414 225.992 99.9385 229.951 103.5Z"
                      fill="#FF7972"/>
                <path fill-rule="evenodd" clip-rule="evenodd"
                      d="M251.766 63.2713C252.581 63.1237 253.419 63.3616 254.035 63.9157L262 71.0817C263.1 72.0712 263.189 73.7648 262.2 74.8645C261.21 75.9643 259.517 76.0538 258.417 75.0643L253.022 70.2108L244.584 86.4153C244.724 86.5311 244.863 86.6507 245 86.7736C250.279 91.523 250.708 99.6522 245.959 104.931C241.209 110.21 233.08 110.639 227.801 105.89C222.522 101.141 222.093 93.0116 226.842 87.7326C230.213 83.9863 235.286 82.6824 239.834 83.9386L241.499 80.7407L222.948 77.9316C222.4 79.3894 221.575 80.7718 220.47 81.9997C215.721 87.2787 207.592 87.7079 202.313 82.9587C197.034 78.2095 196.604 70.0802 201.354 64.8012C206.103 59.5224 214.232 59.0931 219.511 63.8423C222.127 66.1957 223.552 69.379 223.746 72.6342L227.16 73.1512L229.236 58.8996L226.319 56.2754C225.219 55.286 225.13 53.5924 226.119 52.4926C227.109 51.3928 228.802 51.3034 229.902 52.2928L238.664 60.1755C239.763 61.1649 239.853 62.8585 238.863 63.9583C237.874 65.058 236.18 65.1475 235.081 64.158L234.022 63.2059L232.457 73.9533L244.114 75.7185L249.867 64.6699C250.25 63.9351 250.951 63.4188 251.766 63.2713ZM236.724 89.9112C234.858 89.8183 232.968 90.5354 231.621 92.0322C229.247 94.6715 229.462 98.7364 232.101 101.111C234.74 103.485 238.805 103.271 241.18 100.631C243.296 98.2795 243.356 94.7956 241.476 92.3846L238.776 97.5689C238.093 98.8811 236.476 99.3908 235.163 98.7078C233.851 98.0241 233.342 96.4069 234.025 95.0947L236.724 89.9112ZM211.313 70.7517L217.092 71.6266C216.771 70.5058 216.142 69.4586 215.212 68.6214C212.572 66.2468 208.507 66.4615 206.133 69.1009C203.758 71.7402 203.973 75.805 206.612 78.1796C209.252 80.5542 213.317 80.3394 215.691 77.7001C215.914 77.4529 216.113 77.1932 216.29 76.9236L210.511 76.0483C209.049 75.827 208.042 74.4617 208.264 72.999C208.486 71.5363 209.851 70.5301 211.313 70.7517Z"
                      fill="#FFC0CB"/>
            </g>
        </g>
        <path id="Vector 3" d="M0 1C159.898 1 287.816 196.867 326 253" stroke="black"/>
    </g>
    <defs>
        <clipPath id="clip0_5_90">
            <rect width="60" height="60" fill="white" transform="translate(232.884 29.7545) rotate(41.9769)"/>
        </clipPath>
    </defs>
</svg>
