<svg width="50" height="50" viewBox="0 0 50 50" fill="none" xmlns="http://www.w3.org/2000/svg">
<path fill-rule="evenodd" clip-rule="evenodd" d="M16.4167 2.44155C11.9753 6.98874 5.43648 16.559 5.71848 17.0172C6.65259 18.5506 18.6022 23.785 21.0697 25.3712C21.2283 25.477 20.1708 26.6754 17.2803 29.6012C14.6719 32.2449 11.9753 35.153 10.3538 37.0036C8.30932 39.3477 6.93458 38.7309 18.2144 44.7057C27.8728 49.8169 29.5295 50.3281 30.9219 48.6185C32.1733 47.0675 35.4515 43.5778 39.8224 39.1011C45.3213 33.4964 45.2685 33.6374 42.237 32.386C41.2324 31.9807 30.0935 27.0634 27.0621 25.7415C25.5287 25.0718 24.8942 25.9178 32.8254 18.0219C35.4691 15.3958 37.7779 13.0515 38.9588 11.8001C40.545 10.1081 39.6462 9.43857 37.5488 8.43397C32.7725 6.16037 24.1187 2.51205 20.2942 1.06681C18.0558 0.220824 18.7432 0.0621994 16.4167 2.44155ZM36.7557 10.1612C36.6676 10.4079 28.2958 18.2684 25.3348 21.4056C22.9203 23.9788 23.6781 23.9261 19.3424 21.723C12.4511 18.2333 8.99668 17.4224 8.50319 16.9994C8.34457 16.8056 18.2673 3.97472 18.9371 2.70574C19.1838 2.22987 19.2014 2.21225 19.8535 2.49425C19.8535 2.49425 36.9672 9.61482 36.7557 10.1612ZM41.7083 34.6949C39.0117 37.3739 39.8753 36.4396 29.1947 47.6665C27.2559 46.8558 15.0772 40.3877 12.081 38.8367C12.645 38.2727 23.9777 26.9047 24.0659 26.9047C24.0835 26.9047 41.673 34.6773 41.7083 34.6949Z" fill="black"/>
</svg>
