<svg width="145" height="118" viewBox="0 0 145 118" fill="none" xmlns="http://www.w3.org/2000/svg">
<g id="Mobile Bike Hill">
<g id="Bicycle Bike" clip-path="url(#clip0_37_19)">
<g id="icon">
<path fill-rule="evenodd" clip-rule="evenodd" d="M62.0349 56.6242C66.7952 59.0119 72.59 57.0883 74.9776 52.3281C77.3653 47.5678 75.4418 41.7731 70.6815 39.3855C65.9211 36.9978 60.1265 38.9212 57.7388 43.6815C55.3512 48.4417 57.2745 54.2365 62.0349 56.6242ZM92.6816 71.9959C97.4418 74.3836 103.237 72.4601 105.624 67.6999C108.012 62.9395 106.088 57.1448 101.328 54.7572C96.5678 52.3695 90.7732 54.2929 88.3855 59.0533C85.9979 63.8135 87.9212 69.6083 92.6816 71.9959Z" fill="#FF7972"/>
<path fill-rule="evenodd" clip-rule="evenodd" d="M103.077 27.429C103.824 27.071 104.695 27.079 105.435 27.4504L115.013 32.254C116.335 32.9173 116.869 34.5269 116.206 35.8492C115.543 37.1715 113.933 37.7059 112.611 37.0426L106.124 33.7891L102.274 51.6484C102.44 51.723 102.605 51.8016 102.769 51.884C109.117 55.0677 111.681 62.7938 108.497 69.141C105.314 75.4883 97.5878 78.0527 91.2405 74.8691C84.8934 71.6855 82.3287 63.9595 85.5124 57.6122C87.7717 53.1077 92.3189 50.5084 97.0374 50.5166L97.7973 46.9921L79.164 49.1905C79.0209 50.7415 78.5912 52.2928 77.8507 53.7692C74.667 60.1165 66.9409 62.6809 60.5938 59.4973C54.2467 56.3138 51.682 48.5878 54.8657 42.2404C58.0493 35.8933 65.7755 33.3287 72.1226 36.5123C75.2678 38.0899 77.4841 40.7829 78.5326 43.8707L81.9615 43.4662L80.1932 29.1732L76.6861 27.4141C75.3637 26.7508 74.8295 25.1412 75.4927 23.8189C76.156 22.4966 77.7656 21.9623 79.0879 22.6255L89.6227 27.9096C90.945 28.5728 91.4793 30.1824 90.8161 31.5048C90.1528 32.8271 88.5432 33.3614 87.2209 32.6981L85.9483 32.0598L87.2819 42.8385L98.9908 41.457L101.616 29.2801C101.791 28.4703 102.33 27.7869 103.077 27.429ZM95.6183 57.0991C93.7946 57.503 92.1613 58.6946 91.2586 60.4944C89.6669 63.6678 90.9492 67.5311 94.1227 69.1228C97.2962 70.7146 101.159 69.4322 102.751 66.2588C104.17 63.4308 103.306 60.0552 100.855 58.2273L99.6234 63.941C99.3113 65.3873 97.8865 66.3067 96.4404 65.9951C94.9941 65.683 94.0748 64.2582 94.3863 62.8121L95.6183 57.0991ZM66.0446 45.3443L71.8487 44.6593C71.243 43.6633 70.3592 42.8198 69.2404 42.2586C66.0668 40.6668 62.2037 41.9492 60.6119 45.1226C59.0202 48.2961 60.3024 52.1593 63.476 53.7511C66.6496 55.3429 70.5127 54.0605 72.1044 50.887C72.2536 50.5898 72.3774 50.2865 72.4768 49.9797L66.6724 50.6643C65.2031 50.8378 63.8716 49.7873 63.6984 48.3181C63.525 46.8489 64.5755 45.5174 66.0446 45.3443Z" fill="#FFC0CB"/>
</g>
</g>
<path id="Vector 3" d="M0 62C70.6296 62 127.133 104.749 144 117" stroke="black"/>
</g>
<defs>
<clipPath id="clip0_37_19">
<rect width="60" height="60" fill="white" transform="translate(76.0018 0.101227) rotate(26.6374)"/>
</clipPath>
</defs>
</svg>
