<svg width="50" height="50" viewBox="0 0 50 50" fill="none" xmlns="http://www.w3.org/2000/svg">
<g clip-path="url(#clip0_5_24)">
<path fill-rule="evenodd" clip-rule="evenodd" d="M4.91883 12.4041C1.81016 27.0793 1.74013 29.5577 0.997969 33.2965C-0.150281 38.9818 0.801931 40.6903 2.67834 37.0495C7.18733 28.2415 19.398 17.7392 26.1195 16.899C27.0437 16.787 27.1697 16.647 26.6936 16.3389C26.0355 15.9048 24.4951 16.1569 22.3387 16.9971C15.4632 19.6857 8.92372 24.2085 4.09266 30.5939C3.21046 31.7702 3.21046 31.9102 3.93862 27.3452C4.79281 21.968 5.64699 18.3974 6.96328 12.8381C7.31337 11.3538 5.46496 9.86949 4.91883 12.4041ZM31.2026 16.0449C29.8303 16.3249 30.6145 16.9691 32.5329 17.1371C33.2471 17.1931 34.2133 17.333 34.6894 17.431C36.7618 17.8651 36.1317 16.703 33.9052 16.2549C32.2529 15.9188 31.9168 15.8908 31.2026 16.0449ZM42.4051 18.9714C37.1819 20.9458 37.8681 27.2472 43.4133 28.1854C48.0483 28.9696 51.5071 23.0184 48.1744 20.0077C46.9421 18.9015 44.0154 18.3692 42.4051 18.9714ZM46.69 20.0077C47.9783 20.8199 48.1744 22.08 47.2922 23.9425C45.7378 27.2192 42.2931 28.1295 41.1588 25.567C39.8145 22.5283 44.0154 18.3134 46.69 20.0077Z" fill="black"/>
</g>
<defs>
<clipPath id="clip0_5_24">
<rect width="50" height="50" fill="white"/>
</clipPath>
</defs>
</svg>
