<svg width="50" height="50" viewBox="0 0 50 50" fill="none" xmlns="http://www.w3.org/2000/svg">
<path d="M20.0394 7.33912C20.1523 7.33912 20.8973 7.88121 21.6875 8.55852C23.9453 10.4776 25.9095 11.1775 25.9095 10.0712C25.9095 8.60367 19.7233 5.08162 19.046 6.18791C18.888 6.43626 19.6556 7.33912 20.0394 7.33912Z" fill="black"/>
<path d="M17.985 16.0766C19.3171 15.7379 21.0555 15.3992 21.8909 15.3315C23.7197 15.1509 24.1037 14.9477 23.765 14.4058C23.1103 13.3221 20.7395 12.9383 17.7367 13.4576C10.1959 14.7219 13.2212 17.2731 17.985 16.0766Z" fill="black"/>
<path d="M27.4676 2.57533C26.6774 1.46905 25.1421 0.882046 24.8712 1.60451C24.6003 2.30441 25.9773 6.25542 26.7449 7.02306C28.4608 8.73892 29.1157 4.85563 27.4676 2.57533Z" fill="black"/>
<path d="M24.1484 43.1693C23.2905 44.6819 26.0901 48.6555 28.0091 48.6555C29.1831 48.6555 29.1606 48.2494 27.9866 46.1497C26.2933 43.1469 24.8032 41.9953 24.1484 43.1693Z" fill="black"/>
<path d="M28.7544 38.3603C26.9256 37.7281 26.158 37.683 25.9774 38.1797C25.6162 39.1279 31.9604 41.7243 32.6377 40.9115C33.1344 40.3245 31.6217 39.3311 28.7544 38.3603Z" fill="black"/>
<path d="M29.8606 29.4423C24.4646 31.7226 24.8936 37.3897 31.7119 31.7905C33.4278 30.4133 31.9603 28.5618 29.8606 29.4423Z" fill="black"/>
<path d="M28.3251 22.2853C36.7916 13.1415 38.5075 8.26501 35.3692 2.10118C34.3532 0.0918097 32.7728 -0.0662277 32.9986 1.85283C34.0823 11.0418 31.6665 12.9383 21.5519 23.9785C15.298 30.7743 12.6565 37.4348 14.1918 42.4695C15.5464 46.9173 18.662 50.3036 20.4908 49.3328C21.1004 48.9941 21.1004 49.0393 19.9264 47.3008C15.2077 40.3922 17.2848 34.2286 28.3251 22.2853Z" fill="black"/>
</svg>
