<svg width="50" height="50" viewBox="0 0 50 50" fill="none" xmlns="http://www.w3.org/2000/svg">
<g clip-path="url(#clip0_4_69)">
<path d="M33.6911 20.1349C37.0036 21.3724 26.9786 24.6472 23.5911 25.6222C17.2786 27.4472 18.6536 27.8099 20.9661 27.1724C21.7911 26.9474 24.2161 26.3099 26.3411 25.7599C32.8036 24.0849 34.5286 23.4472 35.6661 22.3722C38.2411 19.9347 30.9161 17.1222 24.4661 18.0597C15.9161 19.3097 4.01613 23.9849 1.39113 25.9474C0.128632 26.8974 0.316132 27.5722 4.02863 25.9972C17.3911 20.2847 28.3036 18.1224 33.6911 20.1349Z" fill="black"/>
<path d="M48.2914 21.0347C47.5039 21.3347 45.9039 21.9847 44.1539 22.7472C26.7039 30.3472 12.9914 33.3723 13.7164 29.5223C14.0414 27.7598 18.6914 24.0598 22.0039 22.8973C23.1664 22.4848 22.3914 22.0472 21.3664 22.2847C19.3289 22.7597 15.0039 25.0973 13.4414 26.7598C11.3789 28.9723 11.8414 30.9723 14.6164 31.8598C17.7539 32.8598 28.0789 30.9347 34.9039 28.0597C36.7789 27.2722 46.2539 22.8348 48.7664 21.5848C50.0914 20.9473 48.9039 20.8097 48.2914 21.0347Z" fill="black"/>
</g>
<defs>
<clipPath id="clip0_4_69">
<rect width="50" height="50" fill="white"/>
</clipPath>
</defs>
</svg>
